<svg width="1043" height="314" viewBox="0 0 1043 314" fill="none" xmlns="http://www.w3.org/2000/svg">
<path d="M70.0486 146.092L20.2481 165.62C20.1883 164.624 20.1393 163.628 20.101 162.63C19.117 136.951 25.3386 111.51 38.0588 89.1984C50.7791 66.8871 69.4876 48.6006 92.0581 36.4174C114.629 24.2341 140.156 18.6427 165.738 20.2787C191.321 21.9147 215.932 30.7124 236.776 45.672L208.062 85.8787C194.722 76.3046 178.971 70.674 162.598 69.627C146.225 68.5799 129.888 72.1585 115.443 79.9558C100.998 87.753 89.0242 99.4564 80.8833 113.736C75.1746 123.749 71.511 134.747 70.0486 146.092Z" fill="url(#paint0_linear_1072_5267)"/>
<path d="M162.541 91.2394C172.373 91.2394 181.683 93.4689 189.995 97.4486L149.411 120.869L146.38 165.752L186.784 185.57L225.626 163.155C221.548 194.345 194.859 218.429 162.541 218.429C147.637 218.429 133.931 213.307 123.087 204.728L93.2697 217.297C101.219 225.7 110.786 232.482 121.449 237.205C136.443 243.846 152.999 246.15 169.237 243.854C185.475 241.559 200.743 234.757 213.306 224.221L245 261.973C225.371 278.435 201.514 289.064 176.142 292.651C150.77 296.238 124.9 292.638 101.473 282.262C78.046 271.885 58.0012 255.148 43.6167 233.953C32.7639 217.961 25.4617 199.916 22.1077 181.027L59.7181 165.754L99.1668 149.127C102.054 116.679 129.326 91.2394 162.541 91.2394Z" fill="#FAFAFA"/>
<path d="M453.941 80.7509H414.35C413.822 76.7009 412.74 73.0453 411.104 69.7842C409.467 66.5231 407.303 63.7354 404.611 61.4211C401.919 59.1068 398.725 57.3447 395.03 56.135C391.388 54.8726 387.349 54.2414 382.915 54.2414C375.05 54.2414 368.266 56.1613 362.565 60.0009C356.917 63.8406 352.562 69.3897 349.5 76.6483C346.491 83.9068 344.987 92.6907 344.987 103C344.987 113.73 346.518 122.724 349.579 129.983C352.694 137.189 357.049 142.633 362.644 146.315C368.293 149.944 374.97 151.759 382.678 151.759C387.006 151.759 390.939 151.206 394.476 150.102C398.065 148.997 401.206 147.393 403.898 145.289C406.643 143.132 408.887 140.529 410.629 137.478C412.424 134.375 413.664 130.877 414.35 126.985L453.941 127.221C453.255 134.375 451.17 141.423 447.686 148.366C444.255 155.309 439.53 161.647 433.512 167.38C427.495 173.061 420.157 177.584 411.5 180.951C402.895 184.317 393.024 186 381.886 186C367.211 186 354.066 182.792 342.453 176.375C330.893 169.905 321.76 160.49 315.056 148.129C308.352 135.769 305 120.726 305 103C305 85.2218 308.405 70.1524 315.214 57.7918C322.024 45.4312 331.236 36.0425 342.849 29.6255C354.462 23.2085 367.475 20 381.886 20C391.704 20 400.784 21.3676 409.124 24.1027C417.465 26.7852 424.802 30.73 431.137 35.9373C437.471 41.0919 442.618 47.43 446.577 54.9515C450.536 62.4731 452.991 71.0729 453.941 80.7509Z" fill="#FAFAFA"/>
<path d="M471.91 183.791V22.2091H511.105V152.074H578.568V183.791H471.91Z" fill="#FAFAFA"/>
<path d="M631.654 183.791H589.529L644.244 22.2091H696.425L751.14 183.791H709.015L670.928 62.9201H669.662L631.654 183.791ZM626.032 120.2H714.083V149.865H626.032V120.2Z" fill="#FAFAFA"/>
<path d="M909.928 183.791V22.2091H1023V53.9259H949.123V87.0627H1017.22V118.858H949.123V152.074H1023V183.791H909.928Z" fill="#FAFAFA"/>
<path d="M779.184 22.209L815.45 140.555H816.796L853.061 22.209H896.928L842.213 183.791H790.032L735.317 22.209H779.184Z" fill="#FF5A00"/>
<path d="M308.695 278.145L317.316 237.604H305L306.394 231.029H338.74L337.379 237.604H325.03L316.409 278.145H308.695Z" fill="#FF5A00"/>
<path d="M335.045 278.145L345.741 228H353.292L350.926 238.86C350.753 239.806 350.516 240.837 350.213 241.954C349.932 243.071 349.63 244.178 349.306 245.273C349.003 246.369 348.712 247.379 348.431 248.303H348.722C349.587 247.186 350.559 246.133 351.639 245.145C352.741 244.156 353.973 243.361 355.334 242.76C356.717 242.137 358.251 241.825 359.937 241.825C361.903 241.825 363.567 242.212 364.928 242.985C366.289 243.737 367.326 244.833 368.039 246.272C368.752 247.69 369.109 249.431 369.109 251.493C369.109 252.31 369.044 253.19 368.914 254.136C368.785 255.06 368.612 256.026 368.396 257.036L363.891 278.145H356.307L360.909 256.488C361.103 255.65 361.244 254.898 361.33 254.232C361.417 253.566 361.46 252.965 361.46 252.428C361.46 250.967 361.114 249.86 360.423 249.108C359.731 248.356 358.662 247.98 357.214 247.98C355.68 247.98 354.167 248.571 352.677 249.753C351.186 250.913 349.846 252.61 348.658 254.845C347.469 257.058 346.54 259.743 345.87 262.901L342.629 278.145H335.045Z" fill="#FF5A00"/>
<path d="M389.398 278.789C386.654 278.789 384.256 278.273 382.203 277.242C380.172 276.189 378.594 274.653 377.471 272.634C376.369 270.593 375.818 268.101 375.818 265.157C375.818 262.235 376.239 259.389 377.082 256.617C377.925 253.824 379.167 251.311 380.809 249.076C382.451 246.842 384.45 245.069 386.805 243.759C389.16 242.448 391.84 241.793 394.843 241.793C398.516 241.793 401.271 242.62 403.108 244.274C404.966 245.907 405.895 248.077 405.895 250.784C405.895 252.632 405.474 254.318 404.631 255.844C403.789 257.369 402.503 258.69 400.774 259.808C399.067 260.903 396.896 261.752 394.26 262.354C391.645 262.955 388.566 263.256 385.023 263.256H383.564C383.543 263.578 383.521 263.911 383.499 264.255C383.478 264.577 383.467 264.899 383.467 265.222C383.467 267.606 384.094 269.486 385.347 270.861C386.6 272.215 388.426 272.892 390.824 272.892C392.639 272.892 394.314 272.666 395.848 272.215C397.382 271.764 399.1 271.087 401.001 270.185V276.146C399.251 276.984 397.479 277.64 395.686 278.112C393.892 278.563 391.797 278.789 389.398 278.789ZM384.504 257.777H385.606C388.242 257.777 390.533 257.53 392.477 257.036C394.422 256.521 395.924 255.769 396.982 254.78C398.041 253.771 398.57 252.546 398.57 251.106C398.57 249.989 398.214 249.119 397.501 248.496C396.809 247.852 395.772 247.529 394.389 247.529C393.028 247.529 391.689 247.948 390.37 248.786C389.052 249.603 387.875 250.784 386.838 252.331C385.801 253.856 385.023 255.672 384.504 257.777Z" fill="#FF5A00"/>
<path d="M427.287 278.145L437.302 231.029H444.983L439.992 254.007L444.562 248.496L460.767 231.029H469.939L449.909 252.621L460.346 278.145H451.854L443.654 257.004L438.695 260.291L434.936 278.145H427.287Z" fill="#FF5A00"/>
<path d="M480.667 278.789C477.923 278.789 475.525 278.273 473.472 277.242C471.441 276.189 469.864 274.653 468.74 272.634C467.638 270.593 467.087 268.101 467.087 265.157C467.087 262.235 467.509 259.389 468.351 256.617C469.194 253.824 470.436 251.311 472.079 249.076C473.721 246.842 475.719 245.069 478.075 243.759C480.43 242.448 483.109 241.793 486.112 241.793C489.786 241.793 492.541 242.62 494.377 244.274C496.235 245.907 497.165 248.077 497.165 250.784C497.165 252.632 496.743 254.318 495.901 255.844C495.058 257.369 493.772 258.69 492.044 259.808C490.337 260.903 488.165 261.752 485.529 262.354C482.915 262.955 479.836 263.256 476.292 263.256H474.833C474.812 263.578 474.79 263.911 474.769 264.255C474.747 264.577 474.736 264.899 474.736 265.222C474.736 267.606 475.363 269.486 476.616 270.861C477.869 272.215 479.695 272.892 482.093 272.892C483.909 272.892 485.583 272.666 487.117 272.215C488.651 271.764 490.369 271.087 492.271 270.185V276.146C490.52 276.984 488.749 277.64 486.955 278.112C485.162 278.563 483.066 278.789 480.667 278.789ZM475.773 257.777H476.875C479.511 257.777 481.802 257.53 483.746 257.036C485.691 256.521 487.193 255.769 488.252 254.78C489.31 253.771 489.84 252.546 489.84 251.106C489.84 249.989 489.483 249.119 488.77 248.496C488.079 247.852 487.042 247.529 485.659 247.529C484.297 247.529 482.958 247.948 481.64 248.786C480.322 249.603 479.144 250.784 478.107 252.331C477.07 253.856 476.292 255.672 475.773 257.777Z" fill="#FF5A00"/>
<path d="M498.202 294C497.1 294 496.203 293.936 495.512 293.807C494.799 293.678 494.15 293.527 493.567 293.355V287.329C494.15 287.458 494.766 287.565 495.414 287.651C496.063 287.759 496.776 287.812 497.554 287.812C499.477 287.812 501.086 287.232 502.383 286.072C503.701 284.934 504.911 283.354 506.013 281.335L507.666 278.338L502.286 242.47H509.805L511.944 259.872C512.095 261.075 512.214 262.364 512.301 263.739C512.409 265.114 512.484 266.446 512.527 267.735C512.571 269.003 512.592 270.077 512.592 270.958H512.819C513.122 270.228 513.5 269.304 513.953 268.187C514.407 267.069 514.915 265.877 515.477 264.609C516.039 263.342 516.6 262.16 517.162 261.064L526.691 242.47H534.891L512.495 283.784C511.263 286.062 509.935 287.963 508.508 289.488C507.104 291.014 505.559 292.142 503.874 292.872C502.188 293.624 500.298 294 498.202 294Z" fill="#FF5A00"/>
<path d="M561.468 278.789C558.853 278.789 556.725 278.209 555.083 277.049C553.462 275.867 552.652 273.805 552.652 270.861C552.652 270.281 552.685 269.647 552.749 268.96C552.836 268.251 552.955 267.521 553.106 266.769L557.06 248.206H551.874L552.587 244.597L558.713 242.115L562.797 234.574H567.561L565.876 242.47H575.016L573.784 248.206H564.677L560.69 266.801C560.582 267.252 560.485 267.735 560.398 268.251C560.334 268.745 560.301 269.196 560.301 269.604C560.301 270.571 560.571 271.323 561.111 271.86C561.652 272.397 562.473 272.666 563.575 272.666C564.417 272.666 565.228 272.58 566.005 272.408C566.783 272.236 567.637 271.989 568.566 271.667V277.371C567.766 277.736 566.729 278.059 565.454 278.338C564.18 278.639 562.851 278.789 561.468 278.789Z" fill="#FF5A00"/>
<path d="M589.99 278.725C587.267 278.725 584.89 278.166 582.859 277.049C580.828 275.932 579.251 274.353 578.127 272.312C577.025 270.249 576.474 267.811 576.474 264.996C576.474 262.611 576.723 260.291 577.22 258.035C577.738 255.779 578.494 253.674 579.488 251.719C580.482 249.764 581.725 248.056 583.216 246.595C584.707 245.112 586.435 243.963 588.401 243.146C590.368 242.309 592.572 241.89 595.013 241.89C597.801 241.89 600.199 242.448 602.209 243.565C604.218 244.683 605.763 246.283 606.843 248.367C607.924 250.451 608.464 252.943 608.464 255.844C608.464 258.164 608.215 260.431 607.718 262.644C607.243 264.856 606.519 266.94 605.547 268.896C604.575 270.829 603.343 272.537 601.852 274.02C600.383 275.48 598.654 276.63 596.666 277.468C594.7 278.306 592.474 278.725 589.99 278.725ZM590.541 272.537C591.751 272.537 592.874 272.269 593.911 271.731C594.97 271.173 595.921 270.389 596.763 269.379C597.606 268.348 598.319 267.134 598.903 265.737C599.508 264.319 599.972 262.751 600.296 261.032C600.62 259.313 600.782 257.477 600.782 255.521C600.782 254.211 600.588 252.997 600.199 251.88C599.81 250.741 599.162 249.828 598.254 249.141C597.368 248.432 596.18 248.077 594.689 248.077C593.35 248.077 592.118 248.399 590.994 249.044C589.892 249.667 588.909 250.537 588.045 251.654C587.202 252.771 586.489 254.061 585.906 255.521C585.322 256.961 584.879 258.508 584.577 260.162C584.274 261.795 584.123 263.449 584.123 265.125C584.123 267.51 584.663 269.347 585.744 270.636C586.846 271.903 588.445 272.537 590.541 272.537Z" fill="#FF5A00"/>
<path d="M631.022 278.145L641.037 231.029H666.285L664.891 237.539H647.325L644.602 250.333H661.034L659.673 256.811H643.241L640.065 271.603H657.631L656.238 278.145H631.022Z" fill="#FF5A00"/>
<path d="M671.503 278.145L667.128 242.47H674.647L676.462 262.063C676.548 262.901 676.624 263.9 676.689 265.061C676.754 266.221 676.808 267.359 676.851 268.477C676.916 269.572 676.948 270.475 676.948 271.184H677.207C677.575 270.303 677.996 269.304 678.471 268.187C678.968 267.048 679.465 265.941 679.962 264.867C680.459 263.771 680.902 262.848 681.291 262.096L691.566 242.47H699.701L680.222 278.145H671.503Z" fill="#FF5A00"/>
<path d="M712.86 278.789C710.115 278.789 707.717 278.273 705.664 277.242C703.633 276.189 702.056 274.653 700.932 272.634C699.83 270.593 699.279 268.101 699.279 265.157C699.279 262.235 699.701 259.389 700.543 256.617C701.386 253.824 702.628 251.311 704.271 249.076C705.913 246.842 707.911 245.069 710.267 243.759C712.622 242.448 715.301 241.793 718.305 241.793C721.978 241.793 724.733 242.62 726.569 244.274C728.428 245.907 729.357 248.077 729.357 250.784C729.357 252.632 728.935 254.318 728.093 255.844C727.25 257.369 725.964 258.69 724.236 259.808C722.529 260.903 720.357 261.752 717.721 262.354C715.107 262.955 712.028 263.256 708.484 263.256H707.026C707.004 263.578 706.982 263.911 706.961 264.255C706.939 264.577 706.928 264.899 706.928 265.222C706.928 267.606 707.555 269.486 708.808 270.861C710.061 272.215 711.887 272.892 714.286 272.892C716.101 272.892 717.775 272.666 719.309 272.215C720.843 271.764 722.561 271.087 724.463 270.185V276.146C722.712 276.984 720.941 277.64 719.147 278.112C717.354 278.563 715.258 278.789 712.86 278.789ZM707.965 257.777H709.067C711.704 257.777 713.994 257.53 715.939 257.036C717.883 256.521 719.385 255.769 720.444 254.78C721.502 253.771 722.032 252.546 722.032 251.106C722.032 249.989 721.675 249.119 720.962 248.496C720.271 247.852 719.234 247.529 717.851 247.529C716.49 247.529 715.15 247.948 713.832 248.786C712.514 249.603 711.336 250.784 710.299 252.331C709.262 253.856 708.484 255.672 707.965 257.777Z" fill="#FF5A00"/>
<path d="M732.792 278.145L740.409 242.47H746.34L745.562 249.205H745.919C746.848 247.83 747.853 246.584 748.933 245.467C750.035 244.35 751.256 243.458 752.595 242.792C753.935 242.126 755.426 241.793 757.068 241.793C757.651 241.793 758.256 241.836 758.883 241.922C759.531 241.986 760.093 242.083 760.568 242.212L758.915 249.302C758.44 249.173 757.922 249.065 757.36 248.979C756.798 248.894 756.204 248.851 755.577 248.851C754.151 248.851 752.811 249.184 751.558 249.85C750.305 250.516 749.171 251.439 748.155 252.621C747.14 253.803 746.264 255.188 745.53 256.778C744.795 258.347 744.223 260.055 743.812 261.902L740.376 278.145H732.792Z" fill="#FF5A00"/>
<path d="M757.489 294C756.387 294 755.491 293.936 754.799 293.807C754.086 293.678 753.438 293.527 752.855 293.355V287.329C753.438 287.458 754.054 287.565 754.702 287.651C755.35 287.759 756.063 287.812 756.841 287.812C758.764 287.812 760.374 287.232 761.67 286.072C762.988 284.934 764.198 283.354 765.3 281.335L766.953 278.338L761.573 242.47H769.093L771.232 259.872C771.383 261.075 771.502 262.364 771.588 263.739C771.696 265.114 771.772 266.446 771.815 267.735C771.858 269.003 771.88 270.077 771.88 270.958H772.107C772.409 270.228 772.787 269.304 773.241 268.187C773.695 267.069 774.203 265.877 774.764 264.609C775.326 263.342 775.888 262.16 776.45 261.064L785.979 242.47H794.179L771.783 283.784C770.551 286.062 769.222 287.963 767.796 289.488C766.392 291.014 764.847 292.142 763.161 292.872C761.476 293.624 759.585 294 757.489 294Z" fill="#FF5A00"/>
<path d="M810.384 278.145L820.399 231.029H832.326C835.935 231.029 838.83 231.566 841.012 232.641C843.216 233.715 844.815 235.229 845.809 237.185C846.825 239.118 847.333 241.385 847.333 243.984C847.333 246.691 846.846 249.076 845.874 251.139C844.923 253.18 843.551 254.898 841.758 256.295C839.965 257.67 837.793 258.712 835.243 259.421C832.715 260.108 829.874 260.452 826.719 260.452H821.793L818.033 278.145H810.384ZM823.186 254.071H827.53C829.993 254.071 832.121 253.706 833.914 252.976C835.708 252.224 837.091 251.117 838.063 249.656C839.057 248.174 839.554 246.358 839.554 244.21C839.554 241.868 838.906 240.16 837.609 239.086C836.313 237.99 834.357 237.442 831.743 237.442H826.719L823.186 254.071Z" fill="#FF5A00"/>
<path d="M848.694 278.145L856.31 242.47H862.242L861.464 249.205H861.82C862.749 247.83 863.754 246.584 864.835 245.467C865.936 244.35 867.157 243.458 868.497 242.792C869.837 242.126 871.328 241.793 872.97 241.793C873.553 241.793 874.158 241.836 874.785 241.922C875.433 241.986 875.995 242.083 876.47 242.212L874.817 249.302C874.342 249.173 873.823 249.065 873.261 248.979C872.7 248.894 872.105 248.851 871.479 248.851C870.053 248.851 868.713 249.184 867.46 249.85C866.207 250.516 865.072 251.439 864.057 252.621C863.041 253.803 862.166 255.188 861.431 256.778C860.697 258.347 860.124 260.055 859.714 261.902L856.278 278.145H848.694Z" fill="#FF5A00"/>
<path d="M890.828 278.725C888.106 278.725 885.729 278.166 883.698 277.049C881.667 275.932 880.089 274.353 878.966 272.312C877.864 270.249 877.313 267.811 877.313 264.996C877.313 262.611 877.561 260.291 878.058 258.035C878.577 255.779 879.333 253.674 880.327 251.719C881.321 249.764 882.563 248.056 884.054 246.595C885.545 245.112 887.274 243.963 889.24 243.146C891.206 242.309 893.41 241.89 895.852 241.89C898.639 241.89 901.038 242.448 903.047 243.565C905.057 244.683 906.601 246.283 907.682 248.367C908.762 250.451 909.302 252.943 909.302 255.844C909.302 258.164 909.054 260.431 908.557 262.644C908.082 264.856 907.358 266.94 906.385 268.896C905.413 270.829 904.181 272.537 902.691 274.02C901.221 275.48 899.493 276.63 897.505 277.468C895.538 278.306 893.313 278.725 890.828 278.725ZM891.379 272.537C892.589 272.537 893.713 272.269 894.75 271.731C895.809 271.173 896.759 270.389 897.602 269.379C898.445 268.348 899.158 267.134 899.741 265.737C900.346 264.319 900.811 262.751 901.135 261.032C901.459 259.313 901.621 257.477 901.621 255.521C901.621 254.211 901.426 252.997 901.038 251.88C900.649 250.741 900 249.828 899.093 249.141C898.207 248.432 897.019 248.077 895.528 248.077C894.188 248.077 892.956 248.399 891.833 249.044C890.731 249.667 889.748 250.537 888.883 251.654C888.041 252.771 887.328 254.061 886.744 255.521C886.161 256.961 885.718 258.508 885.415 260.162C885.113 261.795 884.962 263.449 884.962 265.125C884.962 267.51 885.502 269.347 886.582 270.636C887.684 271.903 889.283 272.537 891.379 272.537Z" fill="#FF5A00"/>
<path d="M908.687 294C907.779 294 906.893 293.925 906.029 293.774C905.143 293.624 904.408 293.452 903.825 293.259V287.071C904.452 287.308 905.078 287.479 905.705 287.587C906.31 287.716 906.947 287.78 907.617 287.78C908.524 287.78 909.346 287.565 910.08 287.136C910.793 286.706 911.42 286.04 911.96 285.138C912.479 284.257 912.889 283.14 913.192 281.786L921.554 242.47H929.105L920.484 282.785C920.03 284.955 919.339 286.878 918.41 288.554C917.502 290.251 916.26 291.583 914.683 292.55C913.105 293.517 911.107 294 908.687 294ZM926.999 237.12C925.897 237.12 924.968 236.852 924.211 236.314C923.455 235.756 923.077 234.886 923.077 233.704C923.077 232.716 923.261 231.856 923.628 231.126C924.017 230.396 924.568 229.837 925.281 229.45C926.016 229.042 926.891 228.838 927.906 228.838C929.03 228.838 929.948 229.106 930.661 229.644C931.374 230.159 931.731 230.997 931.731 232.157C931.731 233.661 931.299 234.864 930.434 235.767C929.592 236.669 928.446 237.12 926.999 237.12Z" fill="#FF5A00"/>
<path d="M947.32 278.789C944.576 278.789 942.178 278.273 940.125 277.242C938.094 276.189 936.517 274.653 935.393 272.634C934.291 270.593 933.74 268.101 933.74 265.157C933.74 262.235 934.162 259.389 935.004 256.617C935.847 253.824 937.089 251.311 938.732 249.076C940.374 246.842 942.372 245.069 944.728 243.759C947.083 242.448 949.762 241.793 952.765 241.793C956.439 241.793 959.194 242.62 961.03 244.274C962.888 245.907 963.818 248.077 963.818 250.784C963.818 252.632 963.396 254.318 962.554 255.844C961.711 257.369 960.425 258.69 958.697 259.808C956.99 260.903 954.818 261.752 952.182 262.354C949.568 262.955 946.489 263.256 942.945 263.256H941.486C941.465 263.578 941.443 263.911 941.422 264.255C941.4 264.577 941.389 264.899 941.389 265.222C941.389 267.606 942.016 269.486 943.269 270.861C944.522 272.215 946.348 272.892 948.746 272.892C950.562 272.892 952.236 272.666 953.77 272.215C955.304 271.764 957.022 271.087 958.924 270.185V276.146C957.173 276.984 955.402 277.64 953.608 278.112C951.815 278.563 949.719 278.789 947.32 278.789ZM942.426 257.777H943.528C946.164 257.777 948.455 257.53 950.399 257.036C952.344 256.521 953.846 255.769 954.905 254.78C955.963 253.771 956.493 252.546 956.493 251.106C956.493 249.989 956.136 249.119 955.423 248.496C954.732 247.852 953.695 247.529 952.312 247.529C950.95 247.529 949.611 247.948 948.293 248.786C946.975 249.603 945.797 250.784 944.76 252.331C943.723 253.856 942.945 255.672 942.426 257.777Z" fill="#FF5A00"/>
<path d="M982.097 278.789C979.526 278.789 977.236 278.316 975.226 277.371C973.217 276.426 971.639 274.976 970.494 273.021C969.349 271.065 968.776 268.573 968.776 265.544C968.776 262.987 969.047 260.538 969.587 258.196C970.149 255.833 970.959 253.663 972.018 251.687C973.076 249.688 974.373 247.959 975.907 246.498C977.441 245.016 979.191 243.866 981.157 243.05C983.124 242.212 985.295 241.793 987.672 241.793C989.53 241.793 991.27 241.976 992.89 242.341C994.511 242.685 996.002 243.168 997.363 243.791L995.094 249.753C994.057 249.28 992.944 248.872 991.756 248.528C990.589 248.163 989.303 247.98 987.899 247.98C986.149 247.98 984.571 248.453 983.167 249.398C981.762 250.322 980.563 251.601 979.569 253.233C978.575 254.845 977.808 256.671 977.268 258.712C976.75 260.753 976.49 262.891 976.49 265.125C976.49 266.715 976.76 268.068 977.301 269.186C977.841 270.303 978.619 271.162 979.634 271.764C980.671 272.344 981.914 272.634 983.361 272.634C984.96 272.634 986.462 272.408 987.867 271.957C989.271 271.484 990.675 270.904 992.08 270.217V276.469C990.74 277.178 989.249 277.736 987.607 278.145C985.965 278.574 984.128 278.789 982.097 278.789Z" fill="#FF5A00"/>
<path d="M1009.45 278.789C1006.84 278.789 1004.71 278.209 1003.07 277.049C1001.45 275.867 1000.64 273.805 1000.64 270.861C1000.64 270.281 1000.67 269.647 1000.73 268.96C1000.82 268.251 1000.94 267.521 1001.09 266.769L1005.04 248.206H999.859L1000.57 244.597L1006.7 242.115L1010.78 234.574H1015.55L1013.86 242.47H1023L1021.77 248.206H1012.66L1008.67 266.801C1008.57 267.252 1008.47 267.735 1008.38 268.251C1008.32 268.745 1008.29 269.196 1008.29 269.604C1008.29 270.571 1008.56 271.323 1009.1 271.86C1009.64 272.397 1010.46 272.666 1011.56 272.666C1012.4 272.666 1013.21 272.58 1013.99 272.408C1014.77 272.236 1015.62 271.989 1016.55 271.667V277.371C1015.75 277.736 1014.71 278.059 1013.44 278.338C1012.16 278.639 1010.84 278.789 1009.45 278.789Z" fill="#FF5A00"/>
<defs>
<linearGradient id="paint0_linear_1072_5267" x1="245.332" y1="62.3061" x2="-25.9478" y2="147.261" gradientUnits="userSpaceOnUse">
<stop stop-color="#FF5A00"/>
<stop offset="1" stop-color="#FF8800"/>
</linearGradient>
</defs>
</svg>
